<svg xmlns="http://www.w3.org/2000/svg" width="43.378" height="40" viewBox="0 0 43.378 40"><path d="M0,13.255V0H8.448V2.33H2.33V13.255Z" transform="translate(23.242 23.931) rotate(-140)" fill="#ee4d5e"/><path d="M44.144,31.735A20.146,20.146,0,0,0,4.132,28.389H.9L6.476,38l5.742-9.613H8.874A15.486,15.486,0,1,1,27.362,46.844V51.6A20.215,20.215,0,0,0,44.144,31.735Z" transform="translate(-0.766 -11.595)" fill="#ee4d5e"/><path d="M3.552,218.445l1.482-1.576a23.33,23.33,0,0,0,1.982-2.364,3.2,3.2,0,0,0,.538-1.833,3.063,3.063,0,0,0-1.012-2.429,4.131,4.131,0,0,0-2.817-.887,3.642,3.642,0,0,0-2.731,1.057,3.468,3.468,0,0,0-.993,2.6l.015.066H2.5a2.063,2.063,0,0,1,.327-1.258,1.037,1.037,0,0,1,.9-.5,1.186,1.186,0,0,1,.959.371A1.5,1.5,0,0,1,5,212.7a2.323,2.323,0,0,1-.316,1.044,7.16,7.16,0,0,1-.96,1.369l-3.5,3.7v1.691H7.806v-2.039H3.575l-.023-.022Z" transform="translate(0 -180.552)" fill="#ee4d5e"/><path d="M61.137,210.647H58.661V210.6L54.24,217.68l.123,1.56h4.3v2.331h2.476V219.24H62.3v-1.894H61.137Zm-2.476,6.7H56.485l1.881-3.129.223-.329.073,0Z" transform="translate(-46.34 -181.617)" fill="#ee4d5e"/><path d="M123.875,220.967v-4.715a7.779,7.779,0,0,0-.03-.97,3.433,3.433,0,0,0-.646-1.761,2.415,2.415,0,0,0-1.979-.88,2.193,2.193,0,0,0-1.138.3,1.934,1.934,0,0,0-.868.854v-3.9h-2.622v11.07h2.622V215.01c0-.13.243-.232.424-.3a1.634,1.634,0,0,1,.625-.109,1.028,1.028,0,0,1,.857.353,2.148,2.148,0,0,1,.278,1.287v4.73h2.476Z" transform="translate(-99.61 -181.013)" fill="#ee4d5e"/></svg>
