<svg xmlns="http://www.w3.org/2000/svg" width="34.5" height="34.5" viewBox="0 0 34.5 34.5"><defs><style>.a{isolation:isolate;}.b{fill:#ee4e5e;}.c{fill:#81412f;}.d{fill:#982a35;}.e{fill:#ff8b00;}</style></defs><g class="a" transform="translate(-7 -7)"><path class="b" d="M11.07,21.14h2.76V17H11.07a2.07,2.07,0,0,0,0,4.14Z" transform="translate(-0.62 -3.1)"/><path class="b" d="M46.14,19.07A2.076,2.076,0,0,0,44.07,17H42v4.14h4.14Z" transform="translate(-10.85 -3.1)"/><path class="c" d="M46,39.76a2.759,2.759,0,0,0,2.76,2.76h4.83V37H48.76A2.759,2.759,0,0,0,46,39.76Zm4.14,0a1.38,1.38,0,1,1-1.38-1.38,1.38,1.38,0,0,1,1.38,1.38Z" transform="translate(-12.09 -9.3)"/><path class="d" d="M38.05,23.45H10.45A3.451,3.451,0,0,1,7,20V42.08a3.451,3.451,0,0,0,3.45,3.45h27.6a3.451,3.451,0,0,0,3.45-3.45V38.63H36.67a4.14,4.14,0,0,1,0-8.28H41.5V26.9a3.451,3.451,0,0,0-3.45-3.45Z" transform="translate(0 -4.03)"/><path class="e" d="M27.278,22.69h2.376a1.368,1.368,0,0,0-2.376,0Z" transform="translate(-6.286 -4.65)"/><path class="b" d="M29.8,19.59H31.28v-4.9A3.457,3.457,0,0,1,28.589,12h-2.9A3.457,3.457,0,0,1,23,14.691v4.9h1.477a2.748,2.748,0,0,1,5.327,0Z" transform="translate(-4.96 -1.55)"/><path class="b" d="M20.07,12.52a.694.694,0,0,1,.7-.69A2.076,2.076,0,0,0,22.83,9.769a.694.694,0,0,1,.69-.7h4.14a.694.694,0,0,1,.69.7,2.076,2.076,0,0,0,2.061,2.061.694.694,0,0,1,.7.69v5.52h2.07V7.69A.69.69,0,0,0,32.49,7H18.69a.69.69,0,0,0-.69.69V18.04h2.07Z" transform="translate(-3.41)"/></g></svg>